<svg width="17" height="12" viewBox="0 0 17 12" fill="none" xmlns="http://www.w3.org/2000/svg">
<path d="M0.539062 12V0.5625H6.57031V1.80469H1.89844V5.08594H6.57031V6.35156H1.89844V12H0.539062ZM8.64844 12V0.5625H11.3359C12.1016 0.5625 12.6615 0.606771 13.0156 0.695312C13.375 0.778646 13.6901 0.924479 13.9609 1.13281C14.2995 1.39844 14.5625 1.75521 14.75 2.20312C14.9375 2.64583 15.0312 3.13802 15.0312 3.67969C15.0312 4.61719 14.7682 5.33073 14.2422 5.82031C13.7214 6.30469 12.9557 6.54688 11.9453 6.54688H11.7031L16.0703 12H14.3438L10.1719 6.54688H9.97656V12H8.64844ZM9.97656 1.71094V5.53906H11.0156C12.0781 5.53906 12.7891 5.40365 13.1484 5.13281C13.5078 4.85677 13.6875 4.3776 13.6875 3.69531C13.6875 2.96094 13.5026 2.44792 13.1328 2.15625C12.763 1.85938 12.0573 1.71094 11.0156 1.71094H9.97656Z" fill="#F4F4F4"/>
</svg>
