<svg width="33" height="32" viewBox="0 0 33 32" fill="none" xmlns="http://www.w3.org/2000/svg">
<path d="M32.937 6.093C31.7393 6.6195 30.4708 6.96722 29.172 7.125C30.541 6.30329 31.566 5.01334 32.057 3.494C30.7621 4.245 29.3527 4.77842 27.885 5.073C26.898 4.01846 25.5906 3.31912 24.1656 3.08349C22.7406 2.84787 21.2777 3.08912 20.0038 3.76983C18.7299 4.45054 17.7163 5.53264 17.1202 6.84825C16.5241 8.16385 16.3788 9.63941 16.707 11.046C11.254 10.791 6.41999 8.171 3.18699 4.213C2.59846 5.21388 2.29066 6.35492 2.29599 7.516C2.29518 8.59536 2.56093 9.65822 3.06963 10.6102C3.57832 11.5622 4.31422 12.3738 5.21199 12.973C4.17161 12.9415 3.1539 12.6614 2.24399 12.156V12.235C2.24367 13.75 2.7672 15.2186 3.72584 16.3917C4.68448 17.5649 6.01927 18.3705 7.50399 18.672C6.94158 18.8223 6.36212 18.8992 5.77999 18.901C5.35899 18.901 4.95699 18.86 4.55599 18.786C4.97851 20.0897 5.79699 21.2293 6.89749 22.046C7.998 22.8628 9.32577 23.3162 10.696 23.343C8.3744 25.1611 5.50977 26.1475 2.56099 26.144C2.03869 26.1461 1.51675 26.1167 0.997986 26.056C4.00608 27.9835 7.50435 29.0067 11.077 29.004C23.144 29.004 29.738 19.009 29.738 10.353C29.738 10.077 29.738 9.796 29.717 9.514C31.0069 8.58954 32.1185 7.43895 32.998 6.118L32.937 6.093Z" fill="#F4F4F4"/>
</svg>
