<svg width="331" height="7" viewBox="0 0 331 7" fill="none" xmlns="http://www.w3.org/2000/svg">
<path d="M165.5 0L182.799 0.0191734L199.909 0.0764835L216.642 0.171302L232.815 0.302591L248.25 0.468911L262.778 0.668441L276.241 0.898993L288.49 1.15804L299.392 1.44275L308.827 1.75L316.692 2.07642L322.9 2.41844L327.383 2.77231L330.093 3.13415L331 3.5L330.093 3.86585L327.383 4.22769L322.9 4.58156L316.692 4.92358L308.827 5.25L299.392 5.55725L288.49 5.84196L276.241 6.10101L262.778 6.33156L248.25 6.53109L232.815 6.69741L216.642 6.8287L199.909 6.92352L182.799 6.98083L165.5 7L148.201 6.98083L131.091 6.92352L114.358 6.8287L98.1851 6.69741L82.75 6.53109L68.2215 6.33156L54.7589 6.10101L42.5095 5.84196L31.6077 5.55725L22.1728 5.25L14.3082 4.92358L8.10014 4.58156L3.61658 4.22769L0.906631 3.86585L0 3.5L0.906631 3.13415L3.61658 2.77231L8.10014 2.41844L14.3082 2.07642L22.1728 1.75L31.6077 1.44275L42.5095 1.15804L54.7589 0.898993L68.2215 0.668441L82.75 0.468911L98.1851 0.302591L114.358 0.171302L131.091 0.0764835L148.201 0.0191734L165.5 0Z" fill="url(#paint0_linear_288_274)"/>
<defs>
<linearGradient id="paint0_linear_288_274" x1="331" y1="4" x2="3.65415e-06" y2="4.0003" gradientUnits="userSpaceOnUse">
<stop stop-color="#BC1414"/>
<stop offset="1" stop-color="#0804C2"/>
</linearGradient>
</defs>
</svg>
