<svg width="129" height="27" viewBox="0 0 129 27" fill="none" xmlns="http://www.w3.org/2000/svg">
<rect y="0.926758" width="128.049" height="25.1076" fill="#160045"/>
<path d="M43.0761 18.896C44.7988 18.896 45.6601 18.3066 45.6601 17.128C45.6601 16.7653 45.5808 16.4593 45.4221 16.21C45.2748 15.9493 45.0708 15.7283 44.8101 15.547C44.5495 15.3543 44.2491 15.19 43.9091 15.054C43.5805 14.918 43.2291 14.782 42.8551 14.646C42.4245 14.4986 42.0165 14.3343 41.6311 14.153C41.2458 13.9603 40.9115 13.7393 40.6281 13.49C40.3448 13.2293 40.1181 12.9233 39.9481 12.572C39.7895 12.2206 39.7101 11.7956 39.7101 11.297C39.7101 10.2656 40.0615 9.46097 40.7641 8.88297C41.4668 8.30497 42.4358 8.01597 43.6711 8.01597C44.3851 8.01597 45.0311 8.0953 45.6091 8.25397C46.1985 8.4013 46.6291 8.56564 46.9011 8.74697L46.3741 10.09C46.1361 9.94264 45.7791 9.80097 45.3031 9.66497C44.8385 9.51764 44.2945 9.44397 43.6711 9.44397C43.3538 9.44397 43.0591 9.47797 42.7871 9.54597C42.5151 9.61397 42.2771 9.71597 42.0731 9.85197C41.8691 9.98797 41.7048 10.1636 41.5801 10.379C41.4668 10.583 41.4101 10.8266 41.4101 11.11C41.4101 11.4273 41.4725 11.6936 41.5971 11.909C41.7218 12.1243 41.8975 12.317 42.1241 12.487C42.3508 12.6456 42.6115 12.793 42.9061 12.929C43.2121 13.065 43.5465 13.201 43.9091 13.337C44.4191 13.541 44.8838 13.745 45.3031 13.949C45.7338 14.153 46.1021 14.3966 46.4081 14.68C46.7255 14.9633 46.9691 15.3033 47.1391 15.7C47.3091 16.0853 47.3941 16.5556 47.3941 17.111C47.3941 18.1423 47.0145 18.9356 46.2551 19.491C45.5071 20.0463 44.4475 20.324 43.0761 20.324C42.6115 20.324 42.1808 20.29 41.7841 20.222C41.3988 20.1653 41.0531 20.0973 40.7471 20.018C40.4411 19.9273 40.1748 19.8366 39.9481 19.746C39.7328 19.644 39.5628 19.559 39.4381 19.491L39.9311 18.131C40.1918 18.2783 40.5885 18.4426 41.1211 18.624C41.6538 18.8053 42.3055 18.896 43.0761 18.896ZM57.088 15.649C57.088 16.3516 56.986 16.9863 56.782 17.553C56.578 18.1196 56.289 18.607 55.915 19.015C55.5523 19.423 55.116 19.7403 54.606 19.967C54.096 20.1823 53.5407 20.29 52.94 20.29C52.3393 20.29 51.784 20.1823 51.274 19.967C50.764 19.7403 50.322 19.423 49.948 19.015C49.5853 18.607 49.302 18.1196 49.098 17.553C48.894 16.9863 48.792 16.3516 48.792 15.649C48.792 14.9576 48.894 14.3286 49.098 13.762C49.302 13.184 49.5853 12.691 49.948 12.283C50.322 11.875 50.764 11.5633 51.274 11.348C51.784 11.1213 52.3393 11.008 52.94 11.008C53.5407 11.008 54.096 11.1213 54.606 11.348C55.116 11.5633 55.5523 11.875 55.915 12.283C56.289 12.691 56.578 13.184 56.782 13.762C56.986 14.3286 57.088 14.9576 57.088 15.649ZM55.439 15.649C55.439 14.6516 55.2123 13.864 54.759 13.286C54.317 12.6966 53.7107 12.402 52.94 12.402C52.1693 12.402 51.5573 12.6966 51.104 13.286C50.662 13.864 50.441 14.6516 50.441 15.649C50.441 16.6463 50.662 17.4396 51.104 18.029C51.5573 18.607 52.1693 18.896 52.94 18.896C53.7107 18.896 54.317 18.607 54.759 18.029C55.2123 17.4396 55.439 16.6463 55.439 15.649ZM66.3503 19.814C65.9877 19.9046 65.506 20.001 64.9053 20.103C64.316 20.205 63.6303 20.256 62.8483 20.256C62.1683 20.256 61.596 20.1596 61.1313 19.967C60.6667 19.763 60.2927 19.4796 60.0093 19.117C59.726 18.7543 59.522 18.3293 59.3973 17.842C59.2727 17.3433 59.2103 16.7936 59.2103 16.193V11.229H60.7913V15.853C60.7913 16.9296 60.9613 17.7003 61.3013 18.165C61.6413 18.6296 62.2137 18.862 63.0183 18.862C63.1883 18.862 63.364 18.8563 63.5453 18.845C63.7267 18.8336 63.8967 18.8223 64.0553 18.811C64.214 18.7883 64.3557 18.7713 64.4803 18.76C64.6163 18.7373 64.7127 18.7146 64.7693 18.692V11.229H66.3503V19.814ZM69.0741 11.484C69.4367 11.3933 69.9127 11.297 70.5021 11.195C71.1027 11.093 71.7941 11.042 72.5761 11.042C73.1427 11.042 73.6187 11.1213 74.0041 11.28C74.3894 11.4273 74.7124 11.6483 74.9731 11.943C75.0524 11.8863 75.1771 11.807 75.3471 11.705C75.5171 11.603 75.7267 11.5066 75.9761 11.416C76.2254 11.314 76.5031 11.229 76.8091 11.161C77.1151 11.0816 77.4437 11.042 77.7951 11.042C78.4751 11.042 79.0304 11.144 79.4611 11.348C79.8917 11.5406 80.2261 11.8183 80.4641 12.181C80.7134 12.5436 80.8777 12.9743 80.9571 13.473C81.0477 13.9716 81.0931 14.5156 81.0931 15.105V20.069H79.5121V15.445C79.5121 14.9236 79.4837 14.476 79.4271 14.102C79.3817 13.728 79.2854 13.4163 79.1381 13.167C79.0021 12.9176 78.8094 12.7363 78.5601 12.623C78.3221 12.4983 78.0104 12.436 77.6251 12.436C77.0924 12.436 76.6504 12.5096 76.2991 12.657C75.9591 12.793 75.7267 12.9176 75.6021 13.031C75.6927 13.3256 75.7607 13.6486 75.8061 14C75.8514 14.3513 75.8741 14.7196 75.8741 15.105V20.069H74.2931V15.445C74.2931 14.9236 74.2647 14.476 74.2081 14.102C74.1514 13.728 74.0494 13.4163 73.9021 13.167C73.7661 12.9176 73.5734 12.7363 73.3241 12.623C73.0861 12.4983 72.7801 12.436 72.4061 12.436C72.2474 12.436 72.0774 12.4416 71.8961 12.453C71.7147 12.4643 71.5391 12.4813 71.3691 12.504C71.2104 12.5153 71.0631 12.5323 70.9271 12.555C70.7911 12.5776 70.7004 12.5946 70.6551 12.606V20.069H69.0741V11.484ZM83.2236 15.666C83.2236 14.884 83.337 14.204 83.5636 13.626C83.7903 13.0366 84.0906 12.5493 84.4646 12.164C84.8386 11.7786 85.2693 11.4896 85.7566 11.297C86.244 11.1043 86.7426 11.008 87.2526 11.008C88.4426 11.008 89.355 11.382 89.9896 12.13C90.6243 12.8666 90.9416 13.9943 90.9416 15.513C90.9416 15.581 90.9416 15.6716 90.9416 15.785C90.9416 15.887 90.936 15.9833 90.9246 16.074H84.8726C84.9406 16.992 85.207 17.689 85.6716 18.165C86.1363 18.641 86.8616 18.879 87.8476 18.879C88.403 18.879 88.8676 18.8336 89.2416 18.743C89.627 18.641 89.916 18.5446 90.1086 18.454L90.3296 19.78C90.137 19.882 89.797 19.9896 89.3096 20.103C88.8336 20.2163 88.2896 20.273 87.6776 20.273C86.907 20.273 86.2383 20.1596 85.6716 19.933C85.1163 19.695 84.6573 19.372 84.2946 18.964C83.932 18.556 83.66 18.0743 83.4786 17.519C83.3086 16.9523 83.2236 16.3346 83.2236 15.666ZM89.2926 14.799C89.304 14.085 89.1226 13.5013 88.7486 13.048C88.386 12.5833 87.8816 12.351 87.2356 12.351C86.873 12.351 86.55 12.4246 86.2666 12.572C85.9946 12.708 85.7623 12.8893 85.5696 13.116C85.377 13.3426 85.224 13.6033 85.1106 13.898C85.0086 14.1926 84.9406 14.493 84.9066 14.799H89.2926ZM94.6917 11.229H98.0407V12.555H94.6917V16.635C94.6917 17.077 94.7257 17.4453 94.7937 17.74C94.8617 18.0233 94.9637 18.25 95.0997 18.42C95.2357 18.5786 95.4057 18.692 95.6097 18.76C95.8137 18.828 96.0517 18.862 96.3237 18.862C96.7997 18.862 97.1794 18.811 97.4627 18.709C97.7574 18.5956 97.9614 18.5163 98.0747 18.471L98.3807 19.78C98.2221 19.8593 97.9444 19.9556 97.5477 20.069C97.1511 20.1936 96.6977 20.256 96.1877 20.256C95.5871 20.256 95.0884 20.1823 94.6917 20.035C94.3064 19.8763 93.9947 19.644 93.7567 19.338C93.5187 19.032 93.3487 18.658 93.2467 18.216C93.1561 17.7626 93.1107 17.2413 93.1107 16.652V8.76397L94.6917 8.49197V11.229ZM101.532 11.229H104.881V12.555H101.532V16.635C101.532 17.077 101.566 17.4453 101.634 17.74C101.702 18.0233 101.804 18.25 101.94 18.42C102.076 18.5786 102.246 18.692 102.45 18.76C102.654 18.828 102.892 18.862 103.164 18.862C103.64 18.862 104.019 18.811 104.303 18.709C104.597 18.5956 104.801 18.5163 104.915 18.471L105.221 19.78C105.062 19.8593 104.784 19.9556 104.388 20.069C103.991 20.1936 103.538 20.256 103.028 20.256C102.427 20.256 101.928 20.1823 101.532 20.035C101.146 19.8763 100.835 19.644 100.597 19.338C100.359 19.032 100.189 18.658 100.087 18.216C99.9959 17.7626 99.9506 17.2413 99.9506 16.652V8.76397L101.532 8.49197V11.229ZM110.156 11.042C110.292 11.042 110.445 11.0533 110.615 11.076C110.797 11.0873 110.972 11.11 111.142 11.144C111.312 11.1666 111.465 11.195 111.601 11.229C111.749 11.2516 111.856 11.2743 111.924 11.297L111.652 12.674C111.528 12.6286 111.318 12.5776 111.023 12.521C110.74 12.453 110.372 12.419 109.918 12.419C109.624 12.419 109.329 12.453 109.034 12.521C108.751 12.5776 108.564 12.6173 108.473 12.64V20.069H106.892V11.603C107.266 11.467 107.731 11.3423 108.286 11.229C108.842 11.1043 109.465 11.042 110.156 11.042ZM112.957 15.666C112.957 14.884 113.07 14.204 113.297 13.626C113.524 13.0366 113.824 12.5493 114.198 12.164C114.572 11.7786 115.003 11.4896 115.49 11.297C115.977 11.1043 116.476 11.008 116.986 11.008C118.176 11.008 119.088 11.382 119.723 12.13C120.358 12.8666 120.675 13.9943 120.675 15.513C120.675 15.581 120.675 15.6716 120.675 15.785C120.675 15.887 120.669 15.9833 120.658 16.074H114.606C114.674 16.992 114.94 17.689 115.405 18.165C115.87 18.641 116.595 18.879 117.581 18.879C118.136 18.879 118.601 18.8336 118.975 18.743C119.36 18.641 119.649 18.5446 119.842 18.454L120.063 19.78C119.87 19.882 119.53 19.9896 119.043 20.103C118.567 20.2163 118.023 20.273 117.411 20.273C116.64 20.273 115.972 20.1596 115.405 19.933C114.85 19.695 114.391 19.372 114.028 18.964C113.665 18.556 113.393 18.0743 113.212 17.519C113.042 16.9523 112.957 16.3346 112.957 15.666ZM119.026 14.799C119.037 14.085 118.856 13.5013 118.482 13.048C118.119 12.5833 117.615 12.351 116.969 12.351C116.606 12.351 116.283 12.4246 116 12.572C115.728 12.708 115.496 12.8893 115.303 13.116C115.11 13.3426 114.957 13.6033 114.844 13.898C114.742 14.1926 114.674 14.493 114.64 14.799H119.026Z" fill="#F4F4F4"/>
<path d="M32.5706 12.8459C32.511 11.6338 31.3616 11.6851 28.4061 10.8093C20.5003 8.46529 6.02811 5.14733 6.02811 5.14733L13.2085 13.7966L6.91298 23.1099C6.91298 23.1099 20.9896 18.3893 28.6241 15.2817C31.4803 14.1189 32.6292 14.0572 32.5706 12.8459ZM28.6687 13.1738L12.6025 18.8663L16.5715 13.263L28.6687 13.1738Z" fill="#F4F4F4"/>
</svg>
